# xmcd CD database file
#
# Track frame offsets:
#	150
#	25940
#	57902
#	99402
#	130070
#	146265
#	174112
#	198920
#	235427
#
# Disc length: 3473 seconds
#
# Revision: 0
# Processed by: cddbd v1.5.1PL2 Copyright (c) Steve Scherf et al.
# Submitted via: CDex 1.51
#
DISCID=6e0d8f09
DTITLE=Austin Peralta - Maiden Voyage
DYEAR=2006
DGENRE=Jazz
TTITLE0=Passion Dance
TTITLE1=The Shadow Of Your Smile
TTITLE2=Maiden Voyage
TTITLE3=Green Dolphin Street
TTITLE4=Spain
TTITLE5=N.Q.E.(Naguib Qormah Effendi)
TTITLE6=Someday My Prince Will Come
TTITLE7=Balaqeeti
TTITLE8=Naima
EXTD=YEAR: 2006
EXTT0=
EXTT1=
EXTT2=
EXTT3=
EXTT4=
EXTT5=
EXTT6=
EXTT7=
EXTT8=
PLAYORDER=
